<svg id="Capa_1" enable-background="new 0 0 512 512" height="512" viewBox="0 0 512 512" width="512" xmlns="http://www.w3.org/2000/svg"><g><g><path d="m512 385.461v-287.602c0-12.628-14.166-20.129-24.609-13.012l-10.373 7.066c-.922.628-2.113.628-3.035 0l-15.116-10.298c-9.113-6.209-20.893-6.209-30.008.001l-10.07 6.861c-3.983 2.715-9.132 2.716-13.119 0l-10.068-6.86c-9.113-6.21-20.895-6.21-30.01 0l-10.068 6.86c-3.984 2.715-9.134 2.714-13.118 0l-10.067-6.86c-9.118-6.211-20.897-6.209-30.012.001l-10.063 6.857c-3.984 2.716-9.135 2.715-13.119 0l-10.061-6.856c-9.117-6.213-20.899-6.212-30.015 0l-10.058 6.854c-3.984 2.717-9.134 2.717-13.12.001l-10.063-6.858c-9.113-6.21-20.894-6.211-30.013 0l-10.063 6.857c-8.711 5.939-16.092-2.595-18.438-3.625-10.436-7.113-24.611.372-24.611 13.011v392.445c0 12.628 14.168 20.13 24.611 13.011l5.319-3.625c3.984-2.715 9.135-2.715 13.119 0l10.063 6.858c9.116 6.211 20.898 6.211 30.013 0l10.063-6.857c3.984-2.715 9.134-2.715 13.12 0l10.058 6.855c9.117 6.214 20.897 6.213 30.015.001l10.061-6.856c3.984-2.715 9.135-2.716 13.119 0l10.063 6.857c4.558 3.106 9.781 4.659 15.006 4.659 5.224 0 10.448-1.553 15.007-4.659l10.065-6.859c3.986-2.715 9.135-2.714 13.119 0l10.068 6.861c5.718 3.896 12.797 5.07 20.484 3.4.037-.007.074-.014.112-.022.023-.005.045-.009.068-.014 2.951-.658-2.03 5.383 123.527-119.131.004-.004.007-.008.011-.012 1.464-1.457 2.206-3.388 2.206-5.31zm-148.032 101.836c-9.114-6.211-20.895-6.209-30.011 0l-10.065 6.859c-3.987 2.717-9.136 2.714-13.119 0l-10.063-6.857c-4.559-3.106-9.783-4.659-15.007-4.659-5.225 0-10.449 1.553-15.007 4.659l-10.061 6.856c-3.982 2.715-9.134 2.716-13.12 0l-10.058-6.855c-9.117-6.212-20.897-6.212-30.015 0l-10.063 6.857c-3.983 2.714-9.134 2.716-13.119 0l-10.063-6.858c-9.116-6.212-20.898-6.21-30.013 0l-5.319 3.625c-.503.341-1.164-.006-1.164-.616v-392.445c0-.608.664-.959 1.164-.616 1.507.566 17.299 15.914 35.333 3.625l10.062-6.857c3.986-2.715 9.136-2.715 13.12 0l10.063 6.857c9.117 6.211 20.897 6.213 30.015-.001l10.058-6.855c3.986-2.715 9.136-2.716 13.12 0l10.061 6.856c9.117 6.213 20.898 6.212 30.014 0l10.063-6.857c3.984-2.714 9.134-2.714 13.118 0l10.067 6.86c9.116 6.21 20.897 6.209 30.01 0l10.068-6.86c3.986-2.715 9.135-2.715 13.119 0l10.067 6.859c9.117 6.212 20.897 6.211 30.011.001l10.071-6.862c3.98-2.714 9.13-2.715 13.116 0l15.117 10.298c6.052 4.122 13.873 4.123 19.925 0l10.373-7.066c.503-.343 1.164.009 1.164.616v280.102h-93.646c-14.464 0-26.23 11.767-26.23 26.231v91.258c-1.14-.245-2.174-.671-3.087-1.293zm28.156-1.84v-81.265c0-6.193 5.038-11.231 11.23-11.231h82.925c-33.379 33.059-74.246 73.332-94.155 92.496z"/><path d="m16.164 21.078 5.319 3.625c9.116 6.212 20.897 6.211 30.014 0l10.063-6.857c3.983-2.715 9.134-2.715 13.119 0l10.063 6.857c9.117 6.212 20.897 6.213 30.015-.001l10.058-6.854c3.986-2.715 9.136-2.715 13.12 0l10.061 6.856c9.115 6.212 20.895 6.213 30.014 0l10.063-6.857c3.984-2.715 9.134-2.715 13.118 0l10.067 6.86c9.117 6.211 20.896 6.21 30.011 0l10.067-6.86c3.984-2.715 9.135-2.715 13.119 0l10.068 6.86c9.115 6.211 20.896 6.211 30.01 0l10.071-6.862c3.982-2.714 9.132-2.714 13.116 0l15.117 10.299c6.054 4.122 13.875 4.121 19.925 0l10.373-7.066c.12-.083.371-.252.768-.043.396.209.396.513.396.659v27.643c0 4.142 3.357 7.5 7.5 7.5s7.5-3.358 7.5-7.5v-27.647c0-5.851-3.213-11.185-8.385-13.919s-11.39-2.387-16.225.907l-10.373 7.066c-.922.629-2.113.627-3.035 0l-15.117-10.298c-9.115-6.209-20.895-6.209-30.008.001l-10.07 6.861c-3.986 2.715-9.135 2.715-13.119 0l-10.067-6.859c-9.114-6.211-20.894-6.211-30.012 0l-10.068 6.86c-3.985 2.715-9.134 2.714-13.117 0l-10.067-6.86c-9.114-6.21-20.896-6.211-30.012.001l-10.063 6.857c-3.984 2.716-9.135 2.715-13.119 0l-10.061-6.856c-9.117-6.212-20.899-6.212-30.015.001l-10.058 6.854c-3.984 2.716-9.136 2.715-13.12 0l-10.062-6.856c-9.117-6.212-20.896-6.212-30.014 0l-10.062 6.857c-8.713 5.936-16.103-2.599-18.439-3.624-10.436-7.113-24.611.371-24.611 13.01v392.445c0 5.851 3.214 11.185 8.387 13.919 5.172 2.734 11.389 2.387 16.225-.908l5.319-3.625c3.983-2.715 9.134-2.716 13.119 0 4.227 1.784 20.586 20.137 40.076 6.857 9.632-6.336 10.487-7.712 13.816-8.537 4.021-.996 6.473-5.063 5.477-9.083-.997-4.02-5.062-6.472-9.084-5.476-7.079 1.754-10.022 5.193-18.656 10.701-9.467 6.455-17.745-4.146-23.183-6.858-9.118-6.211-20.898-6.21-30.013.001l-5.319 3.625c-.121.083-.37.25-.768.043-.396-.21-.396-.513-.396-.658v-392.446c0-.606.658-.958 1.164-.615z"/></g></g></svg>